<svg width="90" height="91" viewBox="0 0 90 91" fill="none" xmlns="http://www.w3.org/2000/svg">
<path fill-rule="evenodd" clip-rule="evenodd" d="M63.7806 31.556C64.7762 32.5499 64.7776 34.1626 63.7837 35.1582L39.5432 59.4412C39.0657 59.9196 38.4176 60.1885 37.7416 60.1888C37.0657 60.1891 36.4174 59.9207 35.9394 59.4428L26.2177 49.7211C25.223 48.7264 25.223 47.1136 26.2177 46.1189C27.2125 45.1241 28.8252 45.1241 29.82 46.1189L37.7389 54.0378L60.1783 31.5591C61.1722 30.5635 62.785 30.5621 63.7806 31.556Z" fill="#198754"/>
<path fill-rule="evenodd" clip-rule="evenodd" d="M44.9999 5.59433C22.9607 5.59433 5.09433 23.4607 5.09433 45.4999C5.09433 67.5391 22.9607 85.4055 44.9999 85.4055C67.0391 85.4055 84.9055 67.5391 84.9055 45.4999C84.9055 23.4607 67.0391 5.59433 44.9999 5.59433ZM0 45.4999C0 20.6471 20.1471 0.5 44.9999 0.5C69.8527 0.5 89.9998 20.6471 89.9998 45.4999C89.9998 70.3527 69.8527 90.4998 44.9999 90.4998C20.1471 90.4998 0 70.3527 0 45.4999Z" fill="#198754"/>
</svg>
