<svg width="165" height="25" viewBox="0 0 165 25" fill="none" xmlns="http://www.w3.org/2000/svg">
<g clip-path="url(#clip0_472_6050)">
<path d="M15.7305 0.5H7.86378C6.0269 0.499586 4.24779 1.12672 2.8349 2.27268C1.42201 3.41864 0.464432 5.01116 0.128183 6.77413C0.040787 7.23789 -0.00309867 7.70846 -0.0029292 8.18V21.14C-0.0029292 22.0311 0.359676 22.8858 1.00512 23.5159C1.65056 24.146 2.52596 24.5 3.43875 24.5H4.42209C5.33488 24.5 6.21029 24.146 6.85573 23.5159C7.50117 22.8858 7.86378 22.0311 7.86378 21.14V15.86H15.7305C17.8169 15.86 19.8178 15.0509 21.2931 13.6106C22.7684 12.1703 23.5972 10.2169 23.5972 8.18C23.5972 6.14314 22.7684 4.1897 21.2931 2.74942C19.8178 1.30914 17.8169 0.5 15.7305 0.5ZM15.8736 9.33733C15.6324 9.76219 15.2792 10.1163 14.8506 10.363C14.422 10.6096 13.9336 10.7398 13.436 10.74H10.6499C9.91097 10.74 9.20231 10.4534 8.67981 9.94333C8.15731 9.43323 7.86378 8.74139 7.86378 8.02C7.86397 7.85367 7.87933 7.68768 7.90967 7.524C8.02856 6.89926 8.36767 6.33485 8.86817 5.92864C9.36868 5.52242 9.99903 5.30002 10.6499 5.3H13.436C14.0865 5.29997 14.7164 5.5221 15.2167 5.92791C15.717 6.33371 16.056 6.89761 16.1752 7.52187C16.2055 7.68554 16.2209 7.85153 16.2211 8.01787C16.2228 8.47947 16.1032 8.93379 15.8736 9.33733Z" fill="#241E4E"/>
<path d="M23.5981 12.9797V21.4277C23.5981 23.1248 22.0576 24.4997 20.1565 24.4997H19.1731C17.272 24.4997 15.7314 23.1248 15.7314 21.4277V16.6064H16.7148C18.7669 16.6221 20.751 15.8882 22.2772 14.5488C22.7922 14.0902 23.237 13.5618 23.5981 12.9797Z" fill="#735290"/>
</g>
<path d="M35.1901 21.46C33.4999 21.46 32.3676 19.7225 33.0501 18.1763L38.8794 4.97084C39.2633 4.10116 40.1244 3.54004 41.075 3.54004H42.9411C43.8907 3.54004 44.751 4.09994 45.1355 4.96822L50.9562 18.1117C51.6541 19.6874 50.5004 21.46 48.7771 21.46C47.8035 21.46 46.9278 20.8679 46.5652 19.9644L41.3421 6.94981C41.1641 6.50625 41.4907 6.02324 41.9686 6.02324C42.4466 6.02324 42.7732 6.50625 42.5952 6.94981L37.3609 19.9921C37.005 20.8789 36.1456 21.46 35.1901 21.46ZM35.927 17.9784L36.6707 15.8494C37.0072 14.8861 37.9161 14.2408 38.9365 14.2408H44.284C45.3044 14.2408 46.2132 14.8861 46.5497 15.8494L47.2935 17.9784H35.927Z" fill="#241E4E"/>
<path d="M61.7699 21.8184C59.1246 21.8184 57.0595 21.0931 55.5747 19.6424C54.0899 18.1918 53.3475 16.1352 53.3475 13.4728V5.94005C53.3475 4.61456 54.422 3.54004 55.7475 3.54004H56.0163C57.3418 3.54004 58.4163 4.61456 58.4163 5.94005V13.3192C58.4163 14.8552 58.715 15.956 59.3123 16.6216C59.9267 17.2872 60.763 17.62 61.8211 17.62C62.8793 17.62 63.707 17.2872 64.3043 16.6216C64.9017 15.956 65.2003 14.8552 65.2003 13.3192V5.94005C65.2003 4.61456 66.2749 3.54004 67.6004 3.54004H67.7924C69.1179 3.54004 70.1924 4.61456 70.1924 5.94005V13.4728C70.1924 16.1352 69.45 18.1918 67.9652 19.6424C66.4804 21.0931 64.4153 21.8184 61.7699 21.8184Z" fill="#241E4E"/>
<path d="M79.5656 21.46C78.2401 21.46 77.1656 20.3855 77.1656 19.06V7.55924H73.6712C72.5613 7.55924 71.6616 6.65951 71.6616 5.54964C71.6616 4.43977 72.5613 3.54004 73.6712 3.54004H85.7033C86.8131 3.54004 87.7129 4.43977 87.7129 5.54964C87.7129 6.65951 86.8131 7.55924 85.7033 7.55924H82.2344V19.06C82.2344 20.3855 81.1599 21.46 79.8344 21.46H79.5656Z" fill="#241E4E"/>
<path d="M98.3881 21.8184C96.9545 21.8184 95.6318 21.588 94.4201 21.1272C93.2083 20.6664 92.1502 20.0179 91.2457 19.1816C90.3582 18.3283 89.667 17.3384 89.1721 16.212C88.6771 15.0856 88.4297 13.8483 88.4297 12.5C88.4297 11.1518 88.6771 9.91444 89.1721 8.78804C89.667 7.66164 90.3582 6.68031 91.2457 5.84404C92.1502 4.99071 93.2083 4.33364 94.4201 3.87284C95.6318 3.41204 96.9545 3.18164 98.3881 3.18164C99.8388 3.18164 101.161 3.41204 102.356 3.87284C103.568 4.33364 104.617 4.99071 105.505 5.84404C106.392 6.68031 107.084 7.66164 107.579 8.78804C108.091 9.91444 108.347 11.1518 108.347 12.5C108.347 13.8483 108.091 15.0942 107.579 16.2376C107.084 17.364 106.392 18.3454 105.505 19.1816C104.617 20.0179 103.568 20.6664 102.356 21.1272C101.161 21.588 99.8388 21.8184 98.3881 21.8184ZM98.3881 17.62C99.0708 17.62 99.7022 17.5006 100.283 17.2616C100.88 17.0227 101.392 16.6814 101.819 16.2376C102.262 15.7768 102.604 15.2307 102.843 14.5992C103.099 13.9678 103.227 13.268 103.227 12.5C103.227 11.715 103.099 11.0152 102.843 10.4008C102.604 9.76937 102.262 9.23177 101.819 8.78804C101.392 8.32724 100.88 7.97738 100.283 7.73844C99.7022 7.49951 99.0708 7.38004 98.3881 7.38004C97.7054 7.38004 97.0654 7.49951 96.4681 7.73844C95.8878 7.97738 95.3758 8.32724 94.9321 8.78804C94.5054 9.23177 94.1641 9.76937 93.9081 10.4008C93.6691 11.0152 93.5497 11.715 93.5497 12.5C93.5497 13.268 93.6691 13.9678 93.9081 14.5992C94.1641 15.2307 94.5054 15.7768 94.9321 16.2376C95.3758 16.6814 95.8878 17.0227 96.4681 17.2616C97.0654 17.5006 97.7054 17.62 98.3881 17.62Z" fill="#241E4E"/>
<path d="M113.401 21.46C112.076 21.46 111.001 20.3855 111.001 19.06V5.94005C111.001 4.61456 112.076 3.54004 113.401 3.54004H119.193C120.832 3.54004 122.24 3.80457 123.417 4.33364C124.612 4.86271 125.534 5.63071 126.182 6.63764C126.831 7.62751 127.155 8.80511 127.155 10.1704C127.155 11.5187 126.831 12.6878 126.182 13.6776C125.534 14.6675 124.612 15.4355 123.417 15.9816C122.24 16.5107 120.832 16.7752 119.193 16.7752H115.418C114.833 16.7752 114.544 16.0652 114.962 15.6565C115.375 15.2529 116.07 15.5455 116.07 16.123V19.4199C116.07 20.5467 115.157 21.46 114.03 21.46H113.401ZM116.07 13.4525C116.07 14.0556 115.336 14.3524 114.917 13.9188C114.505 13.4931 114.807 12.7816 115.399 12.7816H118.886C119.944 12.7816 120.729 12.5512 121.241 12.0904C121.77 11.6296 122.035 10.9896 122.035 10.1704C122.035 9.33418 121.77 8.68564 121.241 8.22484C120.729 7.76404 119.944 7.53364 118.886 7.53364H115.399C114.807 7.53364 114.505 6.82219 114.917 6.39644C115.336 5.9629 116.07 6.25969 116.07 6.86279V13.4525Z" fill="#241E4E"/>
<path d="M130.166 21.46C128.475 21.46 127.343 19.7225 128.026 18.1763L133.855 4.97084C134.239 4.10116 135.1 3.54004 136.05 3.54004H137.917C138.866 3.54004 139.726 4.09994 140.111 4.96822L145.932 18.1117C146.63 19.6874 145.476 21.46 143.753 21.46C142.779 21.46 141.903 20.8679 141.541 19.9644L136.318 6.94981C136.14 6.50624 136.466 6.02324 136.944 6.02324C137.422 6.02324 137.749 6.50624 137.571 6.94981L132.336 19.9921C131.98 20.8789 131.121 21.46 130.166 21.46ZM130.902 17.9784L131.646 15.8494C131.983 14.8861 132.892 14.2408 133.912 14.2408H139.259C140.28 14.2408 141.189 14.8861 141.525 15.8494L142.269 17.9784H130.902Z" fill="#241E4E"/>
<path d="M153.449 21.46C152.791 21.46 152.258 20.9266 152.258 20.2687V14.9083C152.258 14.6963 152.551 14.6416 152.628 14.8393C152.712 15.0578 152.405 15.2076 152.285 15.0065L146.472 5.29325C146.01 4.52115 146.566 3.54004 147.466 3.54004H149.47C150.278 3.54004 151.027 3.96523 151.44 4.65938L155.766 11.9137C156.116 12.4994 155.693 13.2424 155.012 13.2424C154.329 13.2424 153.907 12.4979 154.258 11.9122L158.657 4.56665C159.039 3.92982 159.727 3.54004 160.469 3.54004H162.011C162.97 3.54004 163.564 4.58518 163.073 5.40889L157.299 15.0874C157.176 15.2937 156.86 15.143 156.944 14.9177C157.02 14.711 157.327 14.7658 157.327 14.9862V20.3098C157.327 20.9451 156.812 21.46 156.176 21.46H153.449Z" fill="#241E4E"/>
<defs>
<clipPath id="clip0_472_6050">
<rect width="23.6001" height="24" fill="white" transform="translate(0 0.5)"/>
</clipPath>
</defs>
</svg>
