<svg width="20" height="20" viewBox="0 0 20 20" fill="none" xmlns="http://www.w3.org/2000/svg">
<path d="M6.04199 5.83335H13.9587V4.16669C13.9587 2.50002 13.3337 1.66669 11.4587 1.66669H8.54199C6.66699 1.66669 6.04199 2.50002 6.04199 4.16669V5.83335Z" stroke="#422FC6" stroke-width="1.5" stroke-miterlimit="10" stroke-linecap="round" stroke-linejoin="round"/>
<path d="M13.3337 12.5V15.8333C13.3337 17.5 12.5003 18.3333 10.8337 18.3333H9.16699C7.50033 18.3333 6.66699 17.5 6.66699 15.8333V12.5H13.3337Z" stroke="#422FC6" stroke-width="1.5" stroke-miterlimit="10" stroke-linecap="round" stroke-linejoin="round"/>
<path d="M17.5 8.33331V12.5C17.5 14.1666 16.6667 15 15 15H13.3333V12.5H6.66667V15H5C3.33333 15 2.5 14.1666 2.5 12.5V8.33331C2.5 6.66665 3.33333 5.83331 5 5.83331H15C16.6667 5.83331 17.5 6.66665 17.5 8.33331Z" stroke="#422FC6" stroke-width="1.5" stroke-miterlimit="10" stroke-linecap="round" stroke-linejoin="round"/>
<path d="M14.1663 12.5H13.158H5.83301" stroke="#422FC6" stroke-width="1.5" stroke-miterlimit="10" stroke-linecap="round" stroke-linejoin="round"/>
<path d="M5.83301 9.16669H8.33301" stroke="#422FC6" stroke-width="1.5" stroke-miterlimit="10" stroke-linecap="round" stroke-linejoin="round"/>
</svg>
